<?xml version="1.0" encoding="UTF-8" standalone="no"?>
<svg
   xmlns:dc="http://purl.org/dc/elements/1.1/"
   xmlns:cc="http://creativecommons.org/ns#"
   xmlns:rdf="http://www.w3.org/1999/02/22-rdf-syntax-ns#"
   xmlns:svg="http://www.w3.org/2000/svg"
   xmlns="http://www.w3.org/2000/svg"
   id="svg733"
   version="1.1"
   viewBox="0 0 6.6145832 6.6145835"
   height="25"
   width="25">
  <defs
     id="defs727" />
  <metadata
     id="metadata730">
    <rdf:RDF>
      <cc:Work
         rdf:about="">
        <dc:format>image/svg+xml</dc:format>
        <dc:type
           rdf:resource="http://purl.org/dc/dcmitype/StillImage" />
        <dc:title></dc:title>
      </cc:Work>
    </rdf:RDF>
  </metadata>
  <g
     transform="translate(0,-290.3854)"
     id="layer1">
    <path
       style="fill:#004487;stroke-width:0.40779448"
       d="m 6.5395818,293.01587 -0.7272984,-0.59853 a 0.18851697,0.22053234 0 0 0 0.00905,-0.0812 c 0,-0.20686 0,-0.41461 0,-0.6219 0,-0.20731 0,-0.4146 0,-0.62191 0,-0.11519 -0.029409,-0.15137 -0.1270611,-0.15137 -0.2322528,0 -0.4648827,0 -0.6971357,0 -0.096144,0 -0.125552,0.037 -0.1263058,0.15303 v 0.54825 l -1.4387615,-1.18515 c -0.1067004,-0.0882 -0.1131101,-0.0882 -0.2190568,-0.005 l -1.8387943,1.51505 q -0.6383185,0.52531 -1.27927618,1.05327 c -0.0863408,0.0705 -0.1014221,0.12303 -0.0527848,0.2051 q 0.20849977,0.35549 0.4211469,0.7057 a 0.42076986,0.49222816 0 0 0 0.0855867,0.0785 c 0.0377033,-0.0265 0.0716364,-0.0442 0.1014221,-0.0697 l 0.15420687,-0.12753 a 0.2390395,0.27963499 0 0 0 -0.009049,0.0793 q 0.002261,1.46038 0,2.92207 c 0,0.15386 0.0294086,0.18922 0.15873128,0.18922 H 2.5260566 c 0.1338469,0 0.1564691,-0.0282 0.1564691,-0.18746 v -2.60228 h 1.2770139 v 2.61507 c 0,0.14253 0.027146,0.17642 0.1451581,0.17642 h 1.5793952 c 0.1172569,0 0.1474201,-0.0362 0.1474201,-0.17334 q 0,-1.48329 0,-2.96527 a 0.26807112,0.31359698 0 0 0 -0.00527,-0.06 l 0.1677801,0.13886 c 0.098405,0.0812 0.1368637,0.0723 0.2047293,-0.0415 l 0.3770339,-0.6369 c 0.079554,-0.12619 0.072768,-0.16503 -0.036195,-0.25362 z"
       id="home" />
  </g>
</svg>
