<?xml version="1.0" encoding="UTF-8" standalone="no"?>
<svg
   xmlns:dc="http://purl.org/dc/elements/1.1/"
   xmlns:cc="http://creativecommons.org/ns#"
   xmlns:rdf="http://www.w3.org/1999/02/22-rdf-syntax-ns#"
   xmlns:svg="http://www.w3.org/2000/svg"
   xmlns="http://www.w3.org/2000/svg"
   xmlns:sodipodi="http://sodipodi.sourceforge.net/DTD/sodipodi-0.dtd"
   xmlns:inkscape="http://www.inkscape.org/namespaces/inkscape"
   width="52.631"
   height="45.258"
   viewBox="0 0 52.631 45.258"
   version="1.1"
   id="svg334"
   sodipodi:docname="Group 9 (copy).svg"
   inkscape:version="0.92.4 (33fec40, 2019-01-16)">
  <metadata
     id="metadata340">
    <rdf:RDF>
      <cc:Work
         rdf:about="">
        <dc:format>image/svg+xml</dc:format>
        <dc:type
           rdf:resource="http://purl.org/dc/dcmitype/StillImage" />
      </cc:Work>
    </rdf:RDF>
  </metadata>
  <defs
     id="defs338" />
  <sodipodi:namedview
     pagecolor="#ffffff"
     bordercolor="#666666"
     borderopacity="1"
     objecttolerance="10"
     gridtolerance="10"
     guidetolerance="10"
     inkscape:pageopacity="0"
     inkscape:pageshadow="2"
     inkscape:window-width="1280"
     inkscape:window-height="702"
     id="namedview336"
     showgrid="false"
     inkscape:zoom="10.80472"
     inkscape:cx="25.084394"
     inkscape:cy="22.629"
     inkscape:window-x="0"
     inkscape:window-y="29"
     inkscape:window-maximized="1"
     inkscape:current-layer="svg334" />
  <path
     style="fill:#bcceff;fill-opacity:1"
     inkscape:connector-curvature="0"
     d="m 42.418307,35.106196 a 1.643,1.643 0 0 1 -0.055,-1.116 q 1.379,-3.909 2.841,-7.787 a 17.177,17.177 0 0 0 1.445,-8.518 14.039,14.039 0 0 0 -4.382,-8.7 49.661,49.661 0 0 0 -4.1,-3.0859996 c 0.11,-0.3 0.288,-0.773 0.462,-1.244 0.284,-0.777 0.064,-1.385 -0.59,-1.628 a 1.151,1.151 0 0 0 -1.551,0.786 c -0.206,0.485 -0.389,0.974 -0.59,1.477 a 14.8,14.8 0 0 0 -5.69,-0.38 c -5.686,0.814 -9.789,3.7999996 -12.007001,9.1129996 -1.358999,3.269 -2.478999,6.639 -3.686999,9.968 a 1.325,1.325 0 0 1 -0.778,0.832 c -2.022,0.905 -4.0300003,1.838 -6.0520004,2.757 a 1.284,1.284 0 0 0 -0.9289999,1.225 c 0.014,0.663 0.4799999,0.928 1.0289999,1.125 3.7800004,1.358 7.5400004,2.729 11.3229994,4.051 0.567001,0.2 0.764001,0.425 0.732001,1.052 a 6.208,6.208 0 0 0 7.822,6.26 6.442,6.442 0 0 0 3.856,-2.834 c 0.2,0.069 0.375,0.133 0.553,0.192 q 5.75,2.058 11.5,4.124 a 1.339,1.339 0 0 0 1.583,-0.2 c 0.494,-0.512 0.288,-1.038 0.032,-1.577 -0.942,-1.946 -1.88,-3.907 -2.767,-5.892 z m -17.354,3.96 a 3.916,3.916 0 0 1 -2.9,-4.028 c 2.388,0.85 4.725,1.687 7.072,2.524 a 3.723,3.723 0 0 1 -4.172,1.504 z"
     id="notification" />
  <g
     transform="translate(-1560.0618,-42.704271)"
     data-name="Group 8"
     id="Group_8">
    <text
       style="font-size:20px;font-family:Helvetica;fill:#ffffff"
       font-size="20"
       transform="translate(1612,64)"
       data-name="3"
       id="_3">
      <tspan
         id="tspan329"
         y="0"
         x="0">3</tspan>
    </text>
  </g>
</svg>
