<svg xmlns="http://www.w3.org/2000/svg" width="52.631" height="45.258" viewBox="0 0 52.631 45.258">
  <g id="Group_9" data-name="Group 9" transform="translate(-1584.369 -40)">
    <path id="notification" d="M98.654,94.647a1.643,1.643,0,0,1-.055-1.116q1.379-3.909,2.841-7.787a17.177,17.177,0,0,0,1.445-8.518,14.039,14.039,0,0,0-4.382-8.7,49.661,49.661,0,0,0-4.1-3.086c.11-.3.288-.773.462-1.244.284-.777.064-1.385-.59-1.628a1.151,1.151,0,0,0-1.551.786c-.206.485-.389.974-.59,1.477a14.8,14.8,0,0,0-5.69-.38c-5.686.814-9.789,3.8-12.007,9.113-1.359,3.269-2.479,6.639-3.687,9.968a1.325,1.325,0,0,1-.778.832c-2.022.905-4.03,1.838-6.052,2.757a1.284,1.284,0,0,0-.929,1.225c.014.663.48.928,1.029,1.125C67.8,90.829,71.56,92.2,75.343,93.522c.567.2.764.425.732,1.052a6.208,6.208,0,0,0,7.822,6.26A6.442,6.442,0,0,0,87.753,98c.2.069.375.133.553.192q5.75,2.058,11.5,4.124a1.339,1.339,0,0,0,1.583-.2c.494-.512.288-1.038.032-1.577C100.479,98.593,99.541,96.632,98.654,94.647ZM81.3,98.607a3.916,3.916,0,0,1-2.9-4.028c2.388.85,4.725,1.687,7.072,2.524A3.723,3.723,0,0,1,81.3,98.607Z" transform="translate(1521.377 -17.227)" fill="#3663fd"/>
    <g id="Group_8" data-name="Group 8" transform="translate(7 -4)">
      <circle id="Ellipse_1" data-name="Ellipse 1" cx="12.5" cy="12.5" r="12.5" transform="translate(1605 44)" fill="red"/>
      <text id="_3" data-name="3" transform="translate(1612 64)" fill="#fff" font-size="20" font-family="Helvetica"><tspan x="0" y="0">3</tspan></text>
    </g>
  </g>
</svg>
