<?xml version="1.0" encoding="UTF-8" standalone="no"?>
<svg
   xmlns:dc="http://purl.org/dc/elements/1.1/"
   xmlns:cc="http://creativecommons.org/ns#"
   xmlns:rdf="http://www.w3.org/1999/02/22-rdf-syntax-ns#"
   xmlns:svg="http://www.w3.org/2000/svg"
   xmlns="http://www.w3.org/2000/svg"
   id="svg733"
   version="1.1"
   viewBox="0 0 6.6145832 6.6145835"
   height="25"
   width="25">
  <defs
     id="defs727" />
  <metadata
     id="metadata730">
    <rdf:RDF>
      <cc:Work
         rdf:about="">
        <dc:format>image/svg+xml</dc:format>
        <dc:type
           rdf:resource="http://purl.org/dc/dcmitype/StillImage" />
        <dc:title></dc:title>
      </cc:Work>
    </rdf:RDF>
  </metadata>
  <g
     transform="translate(0,-290.3854)"
     id="layer1">
    <path
       style="fill:#ffffff;stroke-width:0.44093689"
       d="m 1.960799,293.59943 a 0.02998011,0.02998732 0 0 1 0.015864,0.0362 1.0929511,1.0932141 0 0 0 -0.022486,0.28532 0.03923867,0.03924811 0 0 1 -0.026453,0.0442 c -0.088177,0.037 -0.1763535,0.0758 -0.2645303,0.11384 -0.052906,0.0233 -0.1058121,0.0463 -0.1587182,0.0688 l -0.018076,0.007 c -0.0097,0.005 -0.0097,0.0327 0,0.0657 q 0.06481,0.20286 0.1300606,0.40572 a 0.06745523,0.06747146 0 0 0 0.078478,0.0442 c 0.041443,-0.01 0.083327,-0.0193 0.1238885,-0.0287 0.096554,-0.0217 0.1944297,-0.041 0.2901016,-0.064 a 0.05378784,0.05380078 0 0 1 0.064369,0.0238 c 0.055992,0.0718 0.1155119,0.13984 0.1763535,0.20728 a 0.03747512,0.03748414 0 0 1 0.00926,0.0463 c -0.058197,0.14684 -0.1150702,0.2937 -0.1715038,0.44099 a 0.10448948,0.10451462 0 0 1 -0.00528,0.0133 c -0.00308,0.008 0.019839,0.0265 0.048939,0.0442 l 0.3672562,0.19712 a 0.06789611,0.06791245 0 0 0 0.088177,-0.0233 c 0.013664,-0.0217 0.027335,-0.0442 0.04012,-0.0635 0.067455,-0.10584 0.1344698,-0.21168 0.2001614,-0.31752 0.010581,-0.0172 0.020281,-0.0177 0.037916,-0.0167 q 0.1393187,0.0133 0.2790795,0.0233 a 0.03967955,0.03968909 0 0 1 0.041443,0.0268 c 0.036153,0.0882 0.073187,0.17639 0.1102212,0.26459 0.019839,0.0463 0.038357,0.0935 0.058197,0.14067 a 0.06657346,0.06658948 0 0 0 0.081564,0.0378 l 0.3928274,-0.13234 a 0.07186406,0.07188135 0 0 0 0.044088,-0.0812 l -0.031744,-0.15434 c -0.019839,-0.0943 -0.039239,-0.18874 -0.05952,-0.28268 a 0.03659337,0.03660217 0 0 1 0.01588,-0.0402 c 0.073187,-0.0618 0.1450509,-0.12617 0.2155923,-0.19096 a 0.03350717,0.03351523 0 0 1 0.042765,-0.005 q 0.22441,0.0882 0.4488198,0.1764 h 0.010148 c 0.00442,0 0.021162,-0.0225 0.037034,-0.0525 0.020281,-0.0393 0.041002,-0.079 0.060401,-0.119 0.046734,-0.0965 0.092145,-0.19493 0.1397603,-0.29061 0.011464,-0.0225 0.00662,-0.0317 -0.012781,-0.0442 -0.1322651,-0.0833 -0.2614441,-0.16846 -0.3928274,-0.25181 a 0.03086187,0.03086929 0 0 1 -0.017195,-0.0402 1.0140329,1.0142769 0 0 0 0.022486,-0.29061 0.02998011,0.02998732 0 0 1 0.019839,-0.0348 l 0.3086188,-0.14067 0.094349,-0.0442 a 0.07098231,0.07099939 0 0 0 0.037034,-0.0852 c -0.044088,-0.13234 -0.085531,-0.26459 -0.1282976,-0.40041 a 0.06921876,0.06923541 0 0 0 -0.078478,-0.0463 c -0.022044,0.005 -0.044088,0.01 -0.065692,0.015 l -0.3527072,0.0855 a 0.0383569,0.03836612 0 0 1 -0.04982,-0.0193 0.87118652,0.87139613 0 0 0 -0.1851712,-0.21697 0.02689391,0.02690038 0 0 1 -0.00838,-0.0362 l 0.1732675,-0.46215 c 0.00617,-0.0167 0.0053,-0.0247 -0.011464,-0.033 q -0.2204611,-0.11233 -0.440903,-0.22882 l -0.0075,-0.005 c -0.00442,0 -0.01588,0.008 -0.02513,0.0217 l -0.016753,0.0257 -0.2380773,0.3841 a 0.03086187,0.03086929 0 0 1 -0.039239,0.0177 0.93070585,0.93092977 0 0 0 -0.281284,-0.0233 0.03350717,0.03351523 0 0 1 -0.04012,-0.0207 c -0.044088,-0.10584 -0.091263,-0.21079 -0.1384372,-0.3162 -0.013664,-0.03 -0.027335,-0.0608 -0.041002,-0.0922 a 0.06921876,0.06923541 0 0 0 -0.08509,-0.0327 l -0.3906232,0.13234 a 0.07054141,0.07055838 0 0 0 -0.044088,0.0803 c 0.00442,0.0217 0.00926,0.0442 0.014547,0.0648 0.027776,0.12001 0.055111,0.23946 0.08465,0.3594 a 0.04408838,0.04409899 0 0 1 -0.021162,0.0555 0.89014452,0.89035869 0 0 0 -0.2050109,0.1817 0.03615247,0.03616117 0 0 1 -0.048939,0.0117 q -0.2204418,-0.0883 -0.4408838,-0.17655 l -0.012781,-0.005 a 0.01851712,0.01852158 0 0 0 -0.021162,0.01 l -0.0075,0.015 c -0.070982,0.14501 -0.1415233,0.28973 -0.2129469,0.4348 -0.00926,0.0177 -0.00838,0.0268 0.0097,0.0388 0.1366743,0.0882 0.2711437,0.17639 0.406495,0.26459 z m 1.7013709,0.0882 a 0.51980208,0.51992714 0 0 1 -0.3214044,0.67471 0.49687612,0.49699567 0 0 1 -0.6048926,-0.28356 0.80990366,0.81009851 0 0 1 -0.039239,-0.11901 0.52421091,0.52433703 0 0 1 0.318318,-0.56712 0.50833909,0.50846139 0 0 1 0.6472176,0.29723 z m 2.619732,-1.94478 c 0.101403,-0.033 0.2023656,-0.067 0.3037689,-0.10134 l 0.01588,-0.005 c 0.00838,-0.005 0.0097,-0.0327 0.00308,-0.0667 -0.018076,-0.0882 -0.035711,-0.17639 -0.053788,-0.26459 a 0.0656917,0.06570751 0 0 0 -0.065692,-0.0555 l -0.053788,0.005 c -0.08465,0.01 -0.1692994,0.0193 -0.2530673,0.0308 -0.021162,0.005 -0.026453,-0.01 -0.03483,-0.0233 -0.036153,-0.0573 -0.071864,-0.11418 -0.1102212,-0.16934 a 0.03350717,0.03351523 0 0 1 -0.00442,-0.0418 c 0.04982,-0.0997 0.098317,-0.19932 0.1490184,-0.29898 0.011464,-0.0217 0.0097,-0.0327 -0.011898,-0.0463 -0.093026,-0.0573 -0.1838486,-0.11734 -0.2759933,-0.17639 l -0.012781,-0.008 a 0.018958,0.01896256 0 0 0 -0.023367,0.005 l -0.00926,0.0117 c -0.067455,0.0882 -0.1344697,0.17641 -0.201043,0.26813 -0.0097,0.0133 -0.018076,0.015 -0.03483,0.0117 -0.066573,-0.015 -0.1322652,-0.0295 -0.2010431,-0.041 -0.017195,-0.005 -0.027334,-0.008 -0.032625,-0.0265 -0.030421,-0.11067 -0.062606,-0.22049 -0.093908,-0.32985 a 0.05422872,0.05424176 0 0 0 -0.00308,-0.008 c 0,-0.005 -0.03042,-0.005 -0.062606,0.005 l -0.2707028,0.0573 a 0.06965966,0.06967642 0 0 0 -0.052906,0.075 c 0.00442,0.0442 0.00926,0.0882 0.013664,0.13234 0.00617,0.0555 0.012781,0.11067 0.016753,0.16634 a 0.04408838,0.04409899 0 0 1 -0.014547,0.0317 l -0.1609227,0.12517 a 0.02821656,0.02822335 0 0 1 -0.036153,0.005 c -0.099198,-0.0517 -0.1988387,-0.10267 -0.2971558,-0.15517 -0.019839,-0.0117 -0.029539,-0.008 -0.041443,0.0117 -0.057315,0.0957 -0.1163934,0.19184 -0.1763537,0.28665 -0.011898,0.0193 -0.010581,0.0295 0.00662,0.0442 l 0.2495404,0.20417 a 0.04056132,0.04057108 0 0 1 0.016753,0.0472 c -0.012781,0.0618 -0.022486,0.12434 -0.029539,0.18699 -0.00308,0.0238 -0.00838,0.0362 -0.032625,0.0442 -0.1088982,0.0308 -0.2169149,0.064 -0.3258132,0.0965 a 0.04408838,0.04409899 0 0 0 -0.00926,0.005 c -0.0053,0 -0.00308,0.03 0.00397,0.064 0.018958,0.0917 0.037034,0.183 0.055992,0.27606 a 0.06613258,0.06614849 0 0 0 0.064369,0.0565 l 0.052025,-0.005 c 0.085531,-0.01 0.1706219,-0.0203 0.2561535,-0.0308 a 0.03174364,0.03175128 0 0 1 0.035711,0.0185 c 0.03483,0.0547 0.070101,0.10801 0.1080167,0.16051 a 0.03791602,0.03792514 0 0 1 0.00442,0.0442 c -0.04982,0.0983 -0.098317,0.19801 -0.1472555,0.29678 a 0.07847732,0.0784962 0 0 1 -0.0097,0.0133 c -0.00617,0.007 0.00617,0.0238 0.026453,0.037 l 0.037916,0.0238 c 0.078478,0.0503 0.1573952,0.1005 0.2349911,0.15134 0.017195,0.0117 0.027334,0.01 0.041002,-0.007 l 0.2147105,-0.26459 a 0.03306629,0.03307425 0 0 1 0.037916,-0.0133 c 0.061283,0.0133 0.123007,0.0247 0.1851712,0.0348 a 0.03350717,0.03351523 0 0 1 0.032625,0.0268 c 0.033067,0.10751 0.067896,0.21476 0.1027261,0.32148 l 0.00528,0.0167 c 0.00308,0.008 0.031744,0.01 0.06481,0 l 0.257917,-0.0617 a 0.07274584,0.07276334 0 0 0 0.053788,-0.0763 l -0.012781,-0.1265 c -0.00617,-0.0565 -0.011464,-0.11284 -0.018076,-0.16934 a 0.03130276,0.03131029 0 0 1 0.01588,-0.0348 c 0.057315,-0.038 0.1141888,-0.0763 0.170622,-0.11684 a 0.03350717,0.03351523 0 0 1 0.044088,-0.005 l 0.2698209,0.14768 0.019839,0.0117 c 0.010581,0.008 0.033948,-0.01 0.052025,-0.0393 0.051583,-0.0802 0.1014031,-0.15834 0.1512231,-0.23726 0.018076,-0.0287 0.027776,-0.0573 0.022044,-0.0627 a 0.07671379,0.07673225 0 0 0 -0.011898,-0.01 q -0.1322652,-0.10835 -0.2645304,-0.21544 a 0.03042099,0.03042831 0 0 1 -0.011464,-0.038 c 0.01588,-0.064 0.03042,-0.12834 0.044088,-0.19316 a 0.03218452,0.03219226 0 0 1 0.020721,-0.0295 z m -0.8293026,0.32546 a 0.36725627,0.36734462 0 0 1 -0.4558738,-0.23726 0.38224631,0.38233828 0 0 1 0.2579169,-0.49302 0.37739658,0.37748738 0 0 1 0.4360341,0.25268 0.37342863,0.37351847 0 0 1 -0.2389589,0.4798 z m -1.6727135,4.16162 a 2.3432977,2.3438615 0 0 1 -0.7424484,0.12134 2.3838591,2.3844326 0 0 1 -2.26526128,-1.68062 2.4636591,2.4642518 0 0 1 0.71114558,-2.60624 l 0.1124258,-0.0988 a 0.06789611,0.06791245 0 0 0 0.00926,-0.0903 l -0.3271427,-0.43262 a 0.05687402,0.0568877 0 0 0 -0.083768,-0.01 l -0.1300606,0.11384 a 3.1426202,3.1433763 0 0 0 -0.91615678,3.33345 3.0420987,3.0428306 0 0 0 2.89043478,2.1432 3.0085916,3.0093154 0 0 0 1.7436957,-0.56271 l 0.1397603,-0.1005 a 0.05951932,0.05953364 0 0 0 0.012781,-0.0852 l -0.3280176,-0.43172 a 0.06480993,0.06482552 0 0 0 -0.088177,-0.0133 l -0.121684,0.0882 a 2.3609332,2.3615012 0 0 1 -0.6163556,0.31398 z"
       id="automation" />
  </g>
</svg>
