<?xml version="1.0" encoding="UTF-8" standalone="no"?>
<svg
   xmlns:dc="http://purl.org/dc/elements/1.1/"
   xmlns:cc="http://creativecommons.org/ns#"
   xmlns:rdf="http://www.w3.org/1999/02/22-rdf-syntax-ns#"
   xmlns:svg="http://www.w3.org/2000/svg"
   xmlns="http://www.w3.org/2000/svg"
   id="svg733"
   version="1.1"
   viewBox="0 0 6.6145832 6.6145835"
   height="25"
   width="25">
  <defs
     id="defs727" />
  <metadata
     id="metadata730">
    <rdf:RDF>
      <cc:Work
         rdf:about="">
        <dc:format>image/svg+xml</dc:format>
        <dc:type
           rdf:resource="http://purl.org/dc/dcmitype/StillImage" />
        <dc:title></dc:title>
      </cc:Work>
    </rdf:RDF>
  </metadata>
  <g
     transform="translate(0,-290.3854)"
     id="layer1">
    <path
       style="fill:#4666CD;stroke-width:0.44096234"
       d="m -0.00534846,296.77164 v 0.10883 a 0.13229165,0.13228577 0 0 0 0.1375833,0.12482 H 6.4716508 a 0.13229165,0.13228577 0 0 0 0.1375833,-0.12482 v -0.10883 A 0.13229165,0.13228577 0 0 0 6.4716508,296.64681 H 6.1753175 a 0.18785415,0.18784579 0 0 1 -0.070115,-0.12483 v -6.00621 A 0.13229165,0.13228577 0 0 0 5.9676192,290.39094 H 4.4991824 a 0.13229165,0.13228577 0 0 0 -0.1375834,0.12483 v 6.00445 a 0.11465277,0.11464767 0 1 1 -0.2284236,0 v -4.00474 A 0.13229165,0.13228577 0 0 0 3.9955921,292.39065 H 2.5302416 a 0.13229165,0.13228577 0 0 0 -0.1375834,0.12483 v 4.00474 a 0.11685766,0.11685245 0 1 1 -0.2337153,0 v -3.01965 A 0.13229165,0.13228577 0 0 0 2.0213596,293.37574 H 0.55468624 a 0.13229165,0.13228577 0 0 0 -0.1375833,0.12483 v 3.01965 c 0,0.0688 -0.013233,0.12482 -0.029103,0.12482 h -0.2553241 a 0.13229165,0.13228577 0 0 0 -0.138025,0.1265 z m 4.70649596,-6.20421 h 1.0645069 a 0.13229165,0.13228577 0 0 1 0.1375833,0.12483 v 0.6773 a 0.13229165,0.13228577 0 0 1 -0.1375833,0.12483 H 4.7011475 a 0.13229165,0.13228577 0 0 1 -0.1375833,-0.12483 v -0.67598 a 0.13229165,0.13228577 0 0 1 0.1375833,-0.12617 z m -1.9724685,2.00193 h 1.0680346 a 0.13229165,0.13228577 0 0 1 0.1375833,0.12483 v 2.02176 a 0.13229165,0.13228577 0 0 1 -0.1375833,0.12482 H 2.728679 a 0.13229165,0.13228577 0 0 1 -0.1375833,-0.12482 v -2.02 a 0.13229165,0.13228577 0 0 1 0.1375833,-0.12432 z m -2.11005176,1.74925 v -0.63673 a 0.13229165,0.13228577 0 0 1 0.1375834,-0.12483 H 1.8207173 a 0.13229165,0.13228577 0 0 1 0.1375833,0.12483 v 0.63895 a 0.13229165,0.13228577 0 0 1 -0.1375833,0.12483 H 0.75621064 a 0.13229165,0.13228577 0 0 1 -0.1375834,-0.12483 z"
       id="bars" />
  </g>
</svg>
