<?xml version="1.0" encoding="UTF-8" standalone="no"?>
<svg
   xmlns:dc="http://purl.org/dc/elements/1.1/"
   xmlns:cc="http://creativecommons.org/ns#"
   xmlns:rdf="http://www.w3.org/1999/02/22-rdf-syntax-ns#"
   xmlns:svg="http://www.w3.org/2000/svg"
   xmlns="http://www.w3.org/2000/svg"
   id="svg733"
   version="1.1"
   viewBox="0 0 6.6145832 6.6145835"
   height="25"
   width="25">
  <defs
     id="defs727" />
  <metadata
     id="metadata730">
    <rdf:RDF>
      <cc:Work
         rdf:about="">
        <dc:format>image/svg+xml</dc:format>
        <dc:type
           rdf:resource="http://purl.org/dc/dcmitype/StillImage" />
        <dc:title></dc:title>
      </cc:Work>
    </rdf:RDF>
  </metadata>
  <g
     transform="translate(0,-290.3854)"
     id="layer1">
    <path
       style="fill:#004487;stroke-width:0.51398915"
       d="m 6.6116856,295.03902 v -1.74043 H 6.0266365 v -0.90442 a 2.7204482,2.0042549 0 1 0 -5.44089638,0 v 0.90442 H 6.9111563e-4 v 1.94602 C 0.14859992,295.13039 0.30010212,295.01916 0.45340052,294.90799 H 1.0612048 l -1.06051368437,0.78219 v 0.45971 C 0.56238622,295.73607 1.1258776,295.32313 1.6839795,294.90976 h 0.6137927 c -0.05569,0.041 -0.1119795,0.0825 -0.1682691,0.12622 -0.6587043,0.48529 -1.31740828,0.97058 -1.97611248,1.45587 H 6.9041563e-4 v 0.51265 H 6.6116849 v -0.61765 l -0.1437173,0.10588 h -0.6096 a 0.06527159,0.04808799 0 0 1 0.018559,-0.0182 c 0.1047936,-0.0772 0.2101871,-0.15738 0.3191721,-0.23511 l 0.419175,-0.30883 v -0.44779 l -0.7617015,0.56118 -0.6096007,0.44912 H 4.6361719 l 1.5263972,-1.12457 c 0.1485086,-0.11021 0.2982133,-0.22143 0.4491165,-0.32951 z m -5.0013611,-1.74043 v -0.90619 a 1.6958638,1.2494056 0 0 1 3.3917276,0 v 0.90619 z m -0.2245588,3.19366 H 0.77915962 c 0.50480698,-0.37456 1.01320668,-0.74999 1.52639728,-1.12457 l 0.6239724,-0.45969 h 0.6078044 l -1.5395714,1.13425 z m 0.6179843,0 a 0.06527159,0.04808799 0 0 1 0.018559,-0.0182 l 0.3191725,-0.23505 1.8066458,-1.33103 h 0.6137925 c -0.059881,0.041 -0.1119795,0.0825 -0.1712635,0.12622 -0.6587042,0.48529 -1.3174085,0.97058 -1.9707232,1.45587 z m 3.9809686,-1.45588 c -0.6587042,0.48528 -1.3174087,0.97059 -1.9761127,1.45588 H 3.3948132 a 0.06527159,0.04808799 0 0 1 0.018559,-0.0182 c 0.1089852,-0.0772 0.2137789,-0.15757 0.3191721,-0.23514 l 1.8066462,-1.33102 H 6.152983 c -0.056887,0.0432 -0.1119795,0.0839 -0.1682691,0.12839 z"
       id="ssl-security" />
  </g>
</svg>
