<svg id="Group_797" data-name="Group 797" xmlns="http://www.w3.org/2000/svg" xmlns:xlink="http://www.w3.org/1999/xlink" width="1320" height="1800" viewBox="0 0 1320 1800">
  <defs>
    <clipPath id="clip-path">
      <rect id="Rectangle_96" data-name="Rectangle 96" width="1320" height="1320" fill="#fff"/>
    </clipPath>
    <linearGradient id="linear-gradient" x1="0.5" y1="1" x2="0.5" gradientUnits="objectBoundingBox">
      <stop offset="0" stop-color="gray" stop-opacity="0.251"/>
      <stop offset="0.54" stop-color="gray" stop-opacity="0.122"/>
      <stop offset="1" stop-color="gray" stop-opacity="0.102"/>
    </linearGradient>
    <linearGradient id="linear-gradient-2" y2="0" xlink:href="#linear-gradient"/>
  </defs>
  <g id="Group_766" data-name="Group 766">
    <rect id="Rectangle_92" data-name="Rectangle 92" width="1320" height="1800" fill="#fff"/>
    <rect id="Rectangle_95" data-name="Rectangle 95" width="1320" height="1320" fill="#fff"/>
    <g id="Mask_Group_2" data-name="Mask Group 2" clip-path="url(#clip-path)">
      <g id="undraw_time_management_30iu" transform="translate(-0.001 119.803)">
        <path id="Path_93" data-name="Path 93" d="M235.884,189.392c-8.215,3.749-16.647,8.561-21.162,17-4.782,8.911-4.209,19.977-3.319,30.287,7.758,89.419,28.195,184.518-7.1,265.516-17.13,39.3-45.783,70.786-68.573,106.472s-40,80.242-29.416,122.224c12.921,51.3,61.146,79.739,93.652,119.216,21.276,25.81,36.194,57.174,56.046,84.327s47.055,51.075,78.747,52.67c45.579,2.308,82.664-40.989,127.353-51.019C507.9,925.814,554,951.946,591.122,983.226s70.887,69.177,114.14,88.706c47.767,21.585,101.613,18.284,151.9,31.252,45.783,11.821,87.929,36.96,133.381,50.361s98.726,12.59,133.941-21.641c45.9-44.766,42.286-124.5,71.6-183.721,27.228-55.02,80.527-87.866,116.4-136.507,64.554-87.545,62.443-221.352,7.63-316.563s-154.1-152.861-255.622-167.871c-45.783-6.757-92.927-5.833-136.942-21.208C809.736,264.906,739.624,117.543,619.342,86.879,542.884,67.42,468.525,101.12,403.4,142.6,346.87,178.606,294.715,162.547,235.884,189.392Z" transform="translate(-103.123 -81.22)" fill="#3663fd" opacity="0.1"/>
        <path id="Path_94" data-name="Path 94" d="M350.7,442.175s-43.4,45.059-89.989,46.4a85.444,85.444,0,0,0-53.884,21.082A159.431,159.431,0,0,0,186.68,530.74" transform="translate(-103.123 -45.124)" fill="none" stroke="#535461" stroke-miterlimit="10" stroke-width="2.543"/>
        <path id="Path_95" data-name="Path 95" d="M157.3,523.869c6.257-3.5,30.14-1.175,30.14-1.175s-12.387,22.593-18.644,26.09a11.738,11.738,0,0,1-13.207-.158,14.457,14.457,0,0,1-5.957-12.967,13.966,13.966,0,0,1,7.718-11.79Z" transform="translate(-103.123 -37.148)" fill="#3663fd"/>
        <path id="Path_96" data-name="Path 96" d="M182.445,487.388c6.982.811,25.88,17.039,25.88,17.039s-21.62,11.555-28.538,10.758c-6.724-1.118-11.459-7.856-10.748-15.3s6.617-12.947,13.406-12.5Z" transform="translate(-103.123 -40.605)" fill="#3663fd"/>
        <path id="Path_97" data-name="Path 97" d="M242.065,458.336c5.647,4.574,14.523,29.084,14.523,29.084s-23.922-2-29.568-6.561a14.963,14.963,0,0,1-2.256-19.165c4.025-6.025,11.645-7.5,17.3-3.358Z" transform="translate(-103.123 -43.743)" fill="#3663fd"/>
        <path id="Path_98" data-name="Path 98" d="M292.159,446.321c6.27,3.455,18.784,25.964,18.784,25.964s-23.883,2.476-30.153-.979a13.988,13.988,0,0,1-7.591-11.745,14.47,14.47,0,0,1,5.864-12.886,11.737,11.737,0,0,1,13.1-.354Z" transform="translate(-103.123 -44.892)" fill="#3663fd"/>
        <path id="Path_99" data-name="Path 99" d="M221.615,529.024c2.086-7.372-4.019-32.889-4.019-32.889s-18.161,17.235-20.246,24.607a15.066,15.066,0,0,0,2.48,14.111,12.021,12.021,0,0,0,12.479,4.259,13.388,13.388,0,0,0,9.306-10.088Z" transform="translate(-103.123 -39.728)" fill="#3663fd"/>
        <path id="Path_100" data-name="Path 100" d="M280.027,513.975c0-7.722-12.781-30.049-12.781-30.049s-12.641,22.383-12.628,30.133c.021,7.726,5.732,13.971,12.756,13.947s12.7-6.305,12.679-14.031Z" transform="translate(-103.123 -40.949)" fill="#3663fd"/>
        <path id="Path_101" data-name="Path 101" d="M334.826,492.074c1.17-7.61-7.987-31.993-7.987-31.993s-15.91,19.753-17.067,27.363c-.812,7.416,3.816,14.226,10.513,15.467s13.1-3.523,14.541-10.823Z" transform="translate(-103.123 -43.334)" fill="#3663fd"/>
        <path id="Path_102" data-name="Path 102" d="M407.1,346.826s-52.282-31.588-67.822-79.977c-6.385-20.348-18.6-37.867-34.808-49.928A148.23,148.23,0,0,0,280,202.374" transform="translate(-103.123 -69.104)" fill="none" stroke="#535461" stroke-miterlimit="10" stroke-width="2.543"/>
        <path id="Path_103" data-name="Path 103" d="M270.081,175.045c4.947,5.47,10.276,31.2,10.276,31.2s-23.349-6.015-28.3-11.5a15.017,15.017,0,0,1,.487-19.284A11.9,11.9,0,0,1,270.081,175.045Z" transform="translate(-103.123 -72.202)" fill="#3663fd"/>
        <path id="Path_104" data-name="Path 104" d="M312.367,188.536c1.45,7.554-6.778,32.329-6.778,32.329s-16.622-19.011-18.072-26.58a14.909,14.909,0,0,1,3.677-13.773,11.872,11.872,0,0,1,12.769-2.96,13.706,13.706,0,0,1,8.417,10.969Z" transform="translate(-103.123 -71.662)" fill="#3663fd"/>
        <path id="Path_105" data-name="Path 105" d="M358.532,236.948c-2.213,7.316-20.691,24.145-20.691,24.145s-5.621-25.642-3.408-32.973,9.422-11.314,16.094-8.876,10.285,10.364,8.069,17.7Z" transform="translate(-103.123 -67.489)" fill="#3663fd"/>
        <path id="Path_106" data-name="Path 106" d="M385.34,280.737c-1.056,7.624-16.685,27.643-16.685,27.643s-9.487-24.229-8.432-31.854a13.908,13.908,0,0,1,7.828-11.515,11.807,11.807,0,0,1,12.923,2.159,14.791,14.791,0,0,1,4.366,13.553Z" transform="translate(-103.123 -62.945)" fill="#3663fd"/>
        <path id="Path_107" data-name="Path 107" d="M287.619,239.175c7.02-.084,27.215-14.325,27.215-14.325s-20.488-13.709-27.508-13.626-12.652,6.424-12.571,14.15,5.84,13.917,12.864,13.828Z" transform="translate(-103.123 -68.219)" fill="#3663fd"/>
        <path id="Path_108" data-name="Path 108" d="M319.616,290.147c6.664-2.392,22.065-22.621,22.065-22.621s-23.286-6.337-29.95-3.945a13.513,13.513,0,0,0-8.919,10.39,14.849,14.849,0,0,0,4.03,13.585,11.84,11.84,0,0,0,12.774,2.6Z" transform="translate(-103.123 -63.037)" fill="#3663fd"/>
        <path id="Path_109" data-name="Path 109" d="M357.514,335.554c6.944-1.119,25.232-18.186,25.232-18.186s-21.976-10.576-28.907-9.457a12.922,12.922,0,0,0-10.447,8.568,15.122,15.122,0,0,0,1.891,14.183,12.117,12.117,0,0,0,12.244,4.906Z" transform="translate(-103.123 -58.559)" fill="#3663fd"/>
        <ellipse id="Ellipse_48" data-name="Ellipse 48" cx="460.373" cy="506.411" rx="460.373" ry="506.411" transform="translate(203.395 31.344)" fill="url(#linear-gradient)"/>
        <ellipse id="Ellipse_49" data-name="Ellipse 49" cx="452.743" cy="498.017" rx="452.743" ry="498.017" transform="translate(211.025 39.737)" fill="#3663fd"/>
        <ellipse id="Ellipse_50" data-name="Ellipse 50" cx="359.905" cy="395.896" rx="359.905" ry="395.896" transform="translate(303.863 141.859)" fill="#dde1ec"/>
        <rect id="Rectangle_108" data-name="Rectangle 108" width="20.348" height="349.731" transform="translate(653.594 211.805)" fill="#535461" opacity="0.3"/>
        <g id="Group_771" data-name="Group 771" transform="translate(470.667 424.683)" opacity="0.1">
          <rect id="Rectangle_109" data-name="Rectangle 109" width="287.415" height="27.978" transform="translate(214.721 104.678)"/>
          <path id="Path_154" data-name="Path 154" d="M0,0,27.431-1.045l-8.39,208.534L-8.39,208.534Z" transform="translate(0 24.786) rotate(-62.36)"/>
          <ellipse id="Ellipse_51" data-name="Ellipse 51" cx="38.152" cy="41.968" rx="38.152" ry="41.968" transform="translate(154.949 76.699)"/>
        </g>
        <rect id="Rectangle_111" data-name="Rectangle 111" width="287.415" height="27.978" transform="translate(685.388 523.765)" fill="#535461"/>
        <path id="Path_155" data-name="Path 155" d="M0,0,208.534,8.39l1.045,27.431L1.045,27.431Z" transform="translate(482.555 419.119) rotate(27.64)" fill="#535461"/>
        <ellipse id="Ellipse_52" data-name="Ellipse 52" cx="38.152" cy="41.968" rx="38.152" ry="41.968" transform="translate(625.615 495.787)" fill="#535461"/>
        <g id="Group_772" data-name="Group 772" transform="translate(303.837 141.859)" opacity="0.1">
          <path id="Path_110" data-name="Path 110" d="M434.938,653.641c0-218.652,161.131-395.9,359.905-395.9,113.116-.11,219.676,58.374,287.619,157.855-61.247-122.434-179.52-205.418-315.6-205.418-198.774,0-359.905,177.244-359.905,395.9-.117,85.9,25.279,169.483,72.324,238.041-29.175-58.351-44.432-123.883-44.346-190.478Z" transform="translate(-406.959 -210.182)"/>
        </g>
        <path id="Path_111" data-name="Path 111" d="M1099.427,313.07c-4.273-4.518-40.238,25.181-40.238,25.181s-12.807,2.574-9.754,12.241-13.417,63.8-13.417,63.8l-6.7-10.31c.649-12.1-2.378-20.676-5.329-26.02-.242-.434-.483-.853-.725-1.245l1.17-.448c-.445-6.6-10.047-16.661-15.146-21.585v-2.126c.318-7.89,3.192-16.214,0-23.362-3.612-8.156-14.18-12.255-15.07-21.208-.534-5.344,2.747-10.17,4.2-15.318,3.459-12.311-3.726-24.873-10.594-35.477a48.581,48.581,0,0,0-8.406-10.66,39.728,39.728,0,0,0-10.1-5.931c-10.06-4.477-20.348-6.729-30.725-9.792-9.958-2.91-19.14-4.295-29.25-.644a14.131,14.131,0,0,0-6.359,4.015c-2.4,2.966-2.722,7.19-4.3,10.73-2.543,5.694-8.025,9.093-12.87,12.744s-9.7,8.659-9.729,14.954c0,8.939,9.284,14.563,12.387,22.886,2.9,7.75,0,16.381-1.615,24.551a18.091,18.091,0,0,0-.191,8.1,17.906,17.906,0,0,0,2.849,5.456c1.92,2.8,3.981,5.4,6.028,8.058l-.941.406c-17.067-1.931-28.042,21.907-28.042,21.907.788.182,1.539.392,2.276.63l-.725,1.035a104.8,104.8,0,0,0-12.527,24.1l-13.989,20.62s-3.052-51.564,4.273-63.161-6.7-18.69-6.7-18.69-30.522-37.379-34.757-34.162,10.365,43.828,23.171,50.277c0,0,1.272,12.884-1.272,21.264-1.539,5.3-9.754,61.231-9.754,61.231s-7.313,47.046,26.223,23.782c21.785-15.08,35.863-41.044,43.036-57.356q.75-1.721,1.412-3.287a43.068,43.068,0,0,1,.674,5.246l1.272,53.9a88.7,88.7,0,0,1-7.707,38.5l-14.943,33.336,1.666.56-1,1.595c-9.843,15.934-26.58,51.76,7.872,70.016l45.783,6.449-2.442,12.884S899.5,652.058,894,679.127a212,212,0,0,1-15.859,47.689l1.412.825c-.292.364-.6.742-.89,1.133a25.4,25.4,0,0,0-5.29,12.2l-6.206,9.681s-2.442,39.953,2.442,49.634c2.671,5.288,11.535,8.645,19.076,10.6,11.191,2.924,20.221-9.792,14.282-20.27l-.076-.14h-.114c-1.272-6.505-5.163-26.692-3.892-34.358.356-2.182.687-4.351.852-6.561a24.887,24.887,0,0,1,2.365-8.3c.2-.434.42-.853.636-1.273l.661.308c2.047.965,4.07,1.875,5.99,2.672-2.976,2.98-5.087,9.149-2.544,21.837,0,0,.242,31.742,2.442,36.736s26.821,11.6,31.094,6.449-2.747-22.886-2.747-22.886l-.216.168c-1.412-10.282-3.154-28.692,1.132-35.938,1.73-2.924,3.408-5.945,4.909-8.771l.928-1.749h0c7.961,4.365,16.38,7.652,20.984,5.372,0,0,20.119-51.564,18.9-58s31.094-79.277,31.094-79.277,27.432-33.574-6.092-56.712c-10.645-7.372-18.4-12.325-24.036-15.668L980.519,507.4a108.876,108.876,0,0,1,1.272-42.891l5.087-21.348h0l.42-1.819s12.807-29,12.2-42.541a10.73,10.73,0,0,1,.318-3.12q.21.965.458,2.014a277.675,277.675,0,0,0,13.252,41.072c9.729,24.145,24.163,22.229,32.073,18.8a11.79,11.79,0,0,0,6.753-8.7c2.849-15.024,10.67-57.118,11.166-68.743a214.2,214.2,0,0,1,3.052-27.069C1086.634,340.14,1103.7,317.589,1099.427,313.07Z" transform="translate(-103.123 -66.544)" fill="url(#linear-gradient-2)"/>
        <path id="Path_112" data-name="Path 112" d="M950.137,681.42s-2.683,5.917-6.359,13.024c-1.437,2.8-3.039,5.806-4.68,8.7-5.812,10.226,0,42.807,0,42.807l-12.718,1.916-12.717-6.995-2.327-23.642V699.942l14.5-17.836,6.359-7.722Z" transform="translate(-103.123 -21.903)" fill="#b8562a"/>
        <g id="Group_773" data-name="Group 773" transform="translate(822.686 652.48)" opacity="0.1">
          <path id="Path_113" data-name="Path 113" d="M950.137,681.42s-2.683,5.917-6.359,13.024a155.764,155.764,0,0,1-16.253-11l-1.119-.867-.6-.476,6.359-7.722Z" transform="translate(-925.808 -674.383)"/>
        </g>
        <path id="Path_114" data-name="Path 114" d="M1012.313,580.4s-30.789,72.2-29.619,78.592-18.008,57.51-18.008,57.51c-4.375,2.266-12.412-.993-19.992-5.316a154.994,154.994,0,0,1-16.533-11.192l-1.119-.867-.674-.532L976.907,544.6l-44.715-36.078-3.307-2.672-19.992-16.228,61.044,12.143s2.124-.294,13.353,6.617c5.392,3.315,12.883,8.282,23.235,15.752C1038.434,547.175,1012.313,580.4,1012.313,580.4Z" transform="translate(-103.123 -40.379)" fill="#5e52ad"/>
        <g id="Group_774" data-name="Group 774" transform="translate(805.771 449.244)" opacity="0.03">
          <path id="Path_115" data-name="Path 115" d="M1012.313,580.4s-30.789,72.2-29.619,78.592-18.008,57.51-18.008,57.51c-4.375,2.266-12.412-.993-19.992-5.316a154.994,154.994,0,0,1-16.533-11.192l-1.119-.867-.674-.532L976.907,544.6l-44.715-36.078-3.307-2.672-19.992-16.228,61.044,12.143s2.124-.294,13.353,6.617c5.392,3.315,12.883,8.282,23.235,15.752C1038.434,547.175,1012.313,580.4,1012.313,580.4Z" transform="translate(-908.894 -489.624)"/>
        </g>
        <path id="Path_116" data-name="Path 116" d="M918.776,692.4s-15.108-2.56-9.869,24.285c0,0,.229,31.476,2.327,36.372s25.562,11.5,29.619,6.393-2.62-22.677-2.62-22.677-17.13,13.737-21.785-.965S918.776,692.4,918.776,692.4Z" transform="translate(-103.123 -20.108)" fill="#5d3e53"/>
        <path id="Path_117" data-name="Path 117" d="M908.309,688.909a20.207,20.207,0,0,0-3.955,6.043,25.444,25.444,0,0,0-2.251,8.226c-.153,2.182-.471,4.351-.8,6.505-1.45,9.107,4.108,36.092,4.108,36.092l-22.078,3.833-8.126-9.583-1.742-21.082a83.332,83.332,0,0,0,3.485-22.383c0-5.5,2.543-10.408,5.087-13.989a36.874,36.874,0,0,1,5.888-6.421S912.964,684.433,908.309,688.909Z" transform="translate(-103.123 -21.726)" fill="#b8562a"/>
        <g id="Group_775" data-name="Group 775" transform="translate(778.963 654.397)" opacity="0.1">
          <path id="Path_118" data-name="Path 118" d="M908.309,688.912a20.207,20.207,0,0,0-3.955,6.043c-9.042-4.491-18.542-10.156-22-12.255l-.267-.154a36.884,36.884,0,0,1,5.888-6.421S912.964,684.435,908.309,688.912Z" transform="translate(-882.086 -676.126)"/>
        </g>
        <path id="Path_119" data-name="Path 119" d="M979.769,561.235s-14.511,30.035-23.82,54.95c-6.1,16.367-18.72,55.342-26.707,80.158l-1.17,3.665c-3.51,10.982-5.85,18.41-5.85,18.41a13.856,13.856,0,0,1-4.566-.742,48.328,48.328,0,0,1-4.553-1.623l-1.844-.769c-1.831-.783-3.815-1.693-5.71-2.644-9.233-4.533-19.076-10.436-22.65-12.59l-1.348-.825A215.858,215.858,0,0,0,896.7,651.9c5.227-26.831,23.235-65.749,23.235-65.749l2.327-12.786-43.57-6.393c-32.824-18.046-16.876-53.621-7.5-69.415a93.63,93.63,0,0,1,5.176-7.932l34.859,8.394a193.192,193.192,0,0,1,17.7,7.876l5.608,2.8c6.842,3.455,15.261,7.9,25.435,13.612C994.279,541.384,979.769,561.235,979.769,561.235Z" transform="translate(-103.123 -40.379)" fill="#5e52ad"/>
        <path id="Path_120" data-name="Path 120" d="M905.193,742.207a14.7,14.7,0,0,1-.716,15.034,11.763,11.763,0,0,1-12.892,5.055c-7.135-1.945-15.592-5.274-18.135-10.52-4.642-9.583-2.327-49.2-2.327-49.2l6.1-9.9s-3.192,43.772,4.362,47.563,23.527,1.777,23.527,1.777Z" transform="translate(-103.123 -20.075)" fill="#5d3e53"/>
        <path id="Path_121" data-name="Path 121" d="M911.374,232.75a13.393,13.393,0,0,0-6.1,3.987c-2.289,2.938-2.543,7.135-4.095,10.646-2.416,5.6-7.63,9.023-12.26,12.59s-9.246,8.589-9.271,14.829c0,8.869,8.9,14.437,11.8,22.677,2.76,7.694,0,16.242-1.539,24.341a18.646,18.646,0,0,0-.178,8.03,18.017,18.017,0,0,0,2.722,5.414c5.608,8.393,12.578,15.836,16.329,25.39,2.849,7.26,3.637,15.276,4.388,23.152,1.081,11.331,2.162,22.872.2,34.064a3.771,3.771,0,0,0,0,2.056,3,3,0,0,0,1.488,1.4,28,28,0,0,0,23.913,1.3,31.96,31.96,0,0,0,17.406-18.083c2.543-6.337,3.523-13.989,8.559-18.1a4.116,4.116,0,0,1,2.047-1.021,5.638,5.638,0,0,1,3.306,1.217c6.537,3.889,14.46,4,21.747,2.406,4.4-.965,8.9-2.686,11.815-6.463,5.736-7.5,2.544-18.7,2.925-28.482.305-7.82,3.039-16.074,0-23.152-3.434-8.086-13.519-12.143-14.358-20.984-.509-5.288,2.62-10.086,4.006-15.178,3.294-12.213-3.548-24.663-10.085-35.169a47.944,47.944,0,0,0-8-10.562,37.549,37.549,0,0,0-9.615-5.875c-9.576-4.435-19.343-6.673-29.25-9.695C929.789,230.5,921.052,229.113,911.374,232.75Z" transform="translate(-103.123 -66.284)" fill="#85555c"/>
        <path id="Path_122" data-name="Path 122" d="M960.018,408.642h-33.7v-60.07a122.679,122.679,0,0,0,1.755-17.487c0-1.973,0-3.987,0-6.015-.318-7.162-1.666-14.311-5.2-18.676-9.3-11.5,30.2-9.583,30.2-9.583a115.824,115.824,0,0,0,4.706,15.472A96.937,96.937,0,0,0,969.1,334.205a47.6,47.6,0,0,0,15.35,14.367C1007.645,361.358,960.018,408.642,960.018,408.642Z" transform="translate(-103.123 -59.672)" fill="#b8562a"/>
        <g id="Group_776" data-name="Group 776" transform="translate(818.293 237.02)" opacity="0.1">
          <path id="Path_123" data-name="Path 123" d="M957.742,312.284c-6.974,10-18.415,14.927-29.708,12.786-.318-7.162-1.666-14.311-5.2-18.676-9.3-11.5,30.2-9.583,30.2-9.583a115.843,115.843,0,0,0,4.706,15.472Z" transform="translate(-921.416 -296.692)"/>
        </g>
        <ellipse id="Ellipse_53" data-name="Ellipse 53" cx="30.789" cy="33.868" rx="30.789" ry="33.868" transform="translate(799.375 196.263)" fill="#b8562a"/>
        <path id="Path_124" data-name="Path 124" d="M1061.084,346.927a220.576,220.576,0,0,0-2.9,26.831c-.471,11.513-7.923,53.257-10.645,68.156a11.629,11.629,0,0,1-6.435,8.631c-7.554,3.4-21.289,5.3-30.522-18.634A283.453,283.453,0,0,1,997.955,391.2a119.818,119.818,0,0,1-2.543-14.241l20.348-12.143a27.385,27.385,0,0,1,4.807,6.785c2.811,5.3,5.7,13.807,5.087,25.8l6.359,10.226s15.681-53.677,12.718-63.259,9.3-12.143,9.3-12.143,34.274-29.377,38.343-24.915S1080.25,334.141,1061.084,346.927Z" transform="translate(-103.123 -58.657)" fill="#b8562a"/>
        <path id="Path_125" data-name="Path 125" d="M894.371,374.145q-2.381,7.5-5.469,14.689c-6.842,16.186-20.246,41.968-41,56.88-31.946,23-24.977-23.642-24.977-23.642s7.821-55.453,9.3-60.7c2.327-8.31,1.157-21.082,1.157-21.082-12.2-6.393-26.134-46.64-22.078-49.844s33.065,33.868,33.065,33.868,13.366,6.995,6.359,18.536-4.07,62.616-4.07,62.616l13.442-20.41a105.413,105.413,0,0,1,11.942-23.894c2.543-3.819,4.324-6.127,4.324-6.127Z" transform="translate(-103.123 -60.316)" fill="#b8562a"/>
        <g id="Group_777" data-name="Group 777" transform="translate(892.263 306.148)" opacity="0.1">
          <path id="Path_126" data-name="Path 126" d="M1020.579,366.335c-4.273,1.735-20.818,9.079-22.65,19.585a119.857,119.857,0,0,1-2.544-14.241l20.348-12.143a27.363,27.363,0,0,1,4.845,6.8Z" transform="translate(-995.386 -359.536)"/>
        </g>
        <g id="Group_778" data-name="Group 778" transform="translate(768.916 294.677)" opacity="0.1">
          <path id="Path_127" data-name="Path 127" d="M894.371,368.259q-2.381,7.5-5.469,14.689c-.789-6.323-4.031-22.495-16.863-27.713,2.543-3.819,4.324-6.127,4.324-6.127Z" transform="translate(-872.039 -349.108)"/>
        </g>
        <g id="Group_779" data-name="Group 779" transform="translate(823.194 271.413)" opacity="0.1">
          <path id="Path_128" data-name="Path 128" d="M960.018,405.515h-33.7v-60.07a122.679,122.679,0,0,0,1.755-17.487c6.931,7.358,5.214,18.76,5.214,18.76l18.008,44.766,8.724-39.576-2.9-5.106,11.954-15.64a47.6,47.6,0,0,0,15.35,14.367C1007.645,358.232,960.018,405.515,960.018,405.515Z" transform="translate(-926.317 -327.959)"/>
        </g>
        <g id="Group_780" data-name="Group 780" transform="translate(768.051 449.244)" opacity="0.1">
          <path id="Path_129" data-name="Path 129" d="M983.826,512.006s-26.4-2.308-49.306-3.4l-2.3-.112c-3.256-.14-6.359-.252-9.4-.336-22.23-.588-47.373-9.135-51.646-10.632a93.566,93.566,0,0,1,5.189-7.9l34.859,8.394a193.192,193.192,0,0,1,17.7,7.876l-20.03-16.27,61.044,12.143s2.124-.294,13.353,6.617Z" transform="translate(-871.174 -489.624)"/>
        </g>
        <path id="Path_130" data-name="Path 130" d="M960.018,354.4l-2.9-5.106,12.9-16.969s26.592,14.339,33.562,11.191c0,0,16.851,15.388,17.423,24.285,0,0-24.392,8.939-23.82,22.383s-11.573,42.164-11.573,42.164l-5.087,22.97a112.226,112.226,0,0,0-1.272,42.527l4.642,28.44s-36.6-3.19-61.044-3.833S870.564,511.6,870.564,511.6l14.256-33a91.1,91.1,0,0,0,7.351-38.163L890.9,387.013s-1.157-26.831-20.348-31.308c0,0,10.454-23.642,26.707-21.725,0,0,23.68-10.87,30.713-3.525s5.3,18.858,5.3,18.858l18.008,44.766Z" transform="translate(-103.123 -56.551)" fill="#ffbf2c"/>
        <g id="Group_781" data-name="Group 781" transform="translate(799.327 181.351)" opacity="0.1">
          <path id="Path_131" data-name="Path 131" d="M911.069,287.883c4.667,0,8.33-5.442,13-5.162,2.416.14,4.489,1.833,6.486,3.357a76.05,76.05,0,0,0,24.812,12.59c3.447,1.007,7.1,1.763,10.556.839s6.7-3.917,7.1-7.82a14.576,14.576,0,0,0-.61-5.078c-3.916-15.007-12.776-27.87-24.85-36.078-4.833-3.26-10.734-5.75-16.088-3.707-4.833,1.833-7.948,6.813-11.446,10.912a44.588,44.588,0,0,1-8.9,7.946c-2.544,1.693-6.359,2.8-7.821,5.9C900.539,277.377,904.875,287.827,911.069,287.883Z" transform="translate(-902.45 -246.084)"/>
        </g>
        <path id="Path_132" data-name="Path 132" d="M911.069,286.726c4.667,0,8.33-5.442,13-5.162,2.416.14,4.489,1.833,6.486,3.357a76.051,76.051,0,0,0,24.812,12.59c3.447,1.007,7.1,1.763,10.556.839s6.7-3.917,7.1-7.82a14.576,14.576,0,0,0-.61-5.078c-3.916-15.007-12.776-27.87-24.85-36.078-4.833-3.26-10.734-5.75-16.088-3.707-4.833,1.833-7.948,6.813-11.446,10.912a44.593,44.593,0,0,1-8.9,7.946c-2.544,1.693-6.359,2.8-7.821,5.9C900.539,276.276,904.875,286.656,911.069,286.726Z" transform="translate(-103.123 -64.849)" fill="#85555c"/>
        <path id="Path_133" data-name="Path 133" d="M896.99,415.6s28.462,11.5,47.055,2.56l9.3.643s15.452,11.919,31.794,6.589" transform="translate(-103.123 -47.782)" opacity="0.05"/>
        <path id="Path_134" data-name="Path 134" d="M1031.758,398.172s-4.642,12.143-2.327,15.976" transform="translate(-103.123 -49.524)" opacity="0.05"/>
        <path id="Path_135" data-name="Path 135" d="M846.451,394.688s2.327,12.143,0,15.976" transform="translate(-103.123 -49.873)" opacity="0.05"/>
        <path id="Path_136" data-name="Path 136" d="M1328.215,646.227s-53.21,58.531-23.171,145.376-51.48,231.27-51.48,231.27.878-.14,2.543-.448C1365.389,1001.2,1419.68,863.732,1358.915,761.6,1336.266,723.615,1317.723,679.074,1328.215,646.227Z" transform="translate(-103.123 -24.719)" fill="#3663fd"/>
        <path id="Path_137" data-name="Path 137" d="M1328.215,647.117s-53.21,58.531-23.171,145.376-51.48,231.256-51.48,231.256.878-.14,2.543-.448c109.281-21.222,163.573-158.694,102.808-260.83C1336.266,724.505,1317.723,679.964,1328.215,647.117Z" transform="translate(-103.123 -24.63)" opacity="0.1"/>
        <path id="Path_138" data-name="Path 138" d="M1328.215,646.227s-30.039,71.737,0,130.268,5.087,222.779-74.664,246.379" transform="translate(-103.123 -24.719)" fill="none" stroke="#535461" stroke-miterlimit="10" stroke-width="1.272"/>
        <path id="Path_139" data-name="Path 139" d="M1422.986,861.5s-60.713-10.632-66.245,49.214-116.785,68.142-116.785,68.142l2.086,1.525c91.82,66.309,179.609,42.234,166.37-45.815C1403.528,901.844,1403.935,868.969,1422.986,861.5Z" transform="translate(-103.123 -3.265)" fill="#3663fd"/>
        <path id="Path_140" data-name="Path 140" d="M1422.986,861.432s-47.131,11.373-43.239,58.517S1309.8,1023.6,1240.007,978.8" transform="translate(-103.123 -3.198)" fill="none" stroke="#535461" stroke-miterlimit="10" stroke-width="1.272"/>
        <path id="Path_141" data-name="Path 141" d="M1369.573,974.8s-47.818-10.52-60.573-24.551-70.137-38.568-76.508-20.984-86.072,77.151-31.883,87.671,127.518,13.989,143.453,6.995S1369.573,974.8,1369.573,974.8Z" transform="translate(-103.123 2.973)" fill="#a8a8a8"/>
        <path id="Path_142" data-name="Path 142" d="M1200.608,1005.712c54.2,10.52,127.518,13.989,143.453,6.995,12.145-5.344,20.577-31,23.909-42.947l1.59.364s-9.564,42.08-25.5,49.088-89.264,3.511-143.453-6.995c-15.642-3.036-20.119-10.17-18.428-19.193C1183.5,998.914,1188.959,1003.446,1200.608,1005.712Z" transform="translate(-103.123 7.634)" opacity="0.2"/>
      </g>
    </g>
  </g>
  <g id="Group_794" data-name="Group 794" transform="translate(271 1357.81)">
    <text id="Time_Saving_Easy_convenient_hassle_free_and_time_saving_process." data-name="Time Saving

Easy, convenient, hassle free and time saving process." transform="translate(389 46)" fill="#3663fd" font-size="48" font-family="Helvetica"><tspan x="-132.504" y="0">Time Saving</tspan><tspan fill="#01040a"><tspan x="0" y="57"></tspan></tspan><tspan fill="#01040a" font-size="32"><tspan x="-389.25" y="98">Easy, convenient, hassle free and time saving process.</tspan></tspan></text>
  </g>
</svg>
