<?xml version="1.0" encoding="UTF-8" standalone="no"?>
<svg
   xmlns:dc="http://purl.org/dc/elements/1.1/"
   xmlns:cc="http://creativecommons.org/ns#"
   xmlns:rdf="http://www.w3.org/1999/02/22-rdf-syntax-ns#"
   xmlns:svg="http://www.w3.org/2000/svg"
   xmlns="http://www.w3.org/2000/svg"
   id="svg733"
   version="1.1"
   viewBox="0 0 6.6145832 6.6145835"
   height="25"
   width="25">
  <defs
     id="defs727" />
  <metadata
     id="metadata730">
    <rdf:RDF>
      <cc:Work
         rdf:about="">
        <dc:format>image/svg+xml</dc:format>
        <dc:type
           rdf:resource="http://purl.org/dc/dcmitype/StillImage" />
        <dc:title></dc:title>
      </cc:Work>
    </rdf:RDF>
  </metadata>
  <g
     transform="translate(0,-290.3854)"
     id="layer1">
    <path
       style="fill:#3663fd;stroke-width:0.32872486"
       d="m 3.9772405,294.63841 a 0.06126253,0.07055544 0 0 1 -0.036451,-0.0731 c 0.00214,-0.0924 0,-0.18464 0.00214,-0.27698 a 0.07596554,0.08748881 0 0 1 0.030631,-0.0621 c 0.053605,-0.0403 0.1102726,-0.0738 0.1657153,-0.11188 0.1142551,-0.0738 0.2275902,-0.15067 0.3510342,-0.23172 -0.044721,-0.14887 -0.090055,-0.29462 -0.1317144,-0.44074 -0.01501,-0.0518 -0.04074,-0.06 -0.086074,-0.0529 -0.1730667,0.0228 -0.3464398,0.039 -0.5207317,0.059 a 0.06922665,0.07972768 0 0 1 -0.071983,-0.039 c -0.043802,-0.0738 -0.091894,-0.14527 -0.1415165,-0.21698 a 0.05513628,0.06349992 0 0 1 -0.00981,-0.0776 c 0.027262,-0.0621 0.049929,-0.12528 0.074127,-0.18896 0.053605,-0.13861 0.1081283,-0.278 0.165715,-0.42772 -0.1203807,-0.0947 -0.2383113,-0.18619 -0.3553228,-0.28217 -0.027262,-0.0222 -0.043802,-0.0135 -0.065857,0.0135 -0.1347775,0.13578 -0.271393,0.26919 -0.4067832,0.40498 a 0.06310042,0.07267207 0 0 1 -0.073515,0.0135 c -0.074127,-0.0304 -0.1488679,-0.0574 -0.2245271,-0.0802 a 0.06830773,0.0786693 0 0 1 -0.057587,-0.0722 c -0.039202,-0.2115 -0.082392,-0.41954 -0.1255817,-0.63484 H 1.9868209 c -0.043802,0.22129 -0.086074,0.43113 -0.1255882,0.64215 a 0.06646985,0.07655267 0 0 1 -0.055136,0.0655 c -0.075659,0.0256 -0.1513185,0.0512 -0.2245273,0.0815 a 0.0652446,0.07514155 0 0 1 -0.077191,-0.0151 Q 1.3025183,292.43057 1.0966763,292.2311 a 0.06126253,0.07055544 0 0 0 -0.054524,-0.0135 c -0.12252504,0.0924 -0.24198697,0.18737 -0.36298048,0.28217 0.0817855,0.2118 0.15805735,0.41031 0.23677969,0.60791 a 0.06646985,0.07655267 0 0 1 -0.0122525,0.0942 0.98020055,1.1288876 0 0 0 -0.11884931,0.18024 0.10506524,0.12100268 0 0 1 -0.12252508,0.0654 c -0.1693909,-0.0225 -0.33878181,-0.0403 -0.50909164,-0.056 a 0.05758678,0.06632211 0 0 0 -0.0468658,0.0248 c -0.05054182,0.15486 -0.09832652,0.31256 -0.14611128,0.46853 0.0257303,0.0181 0.0401269056,0.029 0.05452361,0.0373 0.15315634,0.10011 0.30416849,0.20109 0.45763112,0.30061 a 0.06585723,0.07584719 0 0 1 0.0385954,0.0792 q -0.004595,0.13203 0,0.26399 a 0.06585723,0.07584719 0 0 1 -0.0385954,0.0792 c -0.15131844,0.0979 -0.30171797,0.19789 -0.45303643,0.297 -0.01654089,0.0135 -0.03338811,0.0255 -0.05758681,0.0431 0.04472172,0.14814 0.09189383,0.29351 0.13232706,0.44061 0.01500932,0.0521 0.04165851,0.0551 0.08239813,0.0505 0.17306667,-0.021 0.34643962,-0.039 0.52073153,-0.059 a 0.07137085,0.08219716 0 0 1 0.0762719,0.0422 1.5637262,1.8009279 0 0 0 0.12711976,0.19687 0.07964129,0.09172211 0 0 1 0.0143967,0.11626 c -0.0778034,0.19338 -0.15315631,0.38808 -0.23279762,0.59587 0.12252508,0.0963 0.24198701,0.19154 0.36389945,0.28221 a 0.06126253,0.07055544 0 0 0 0.054524,-0.0135 q 0.2052293,-0.19976 0.4077021,-0.40293 a 0.06555091,0.07549433 0 0 1 0.077191,-0.0143 2.232713,2.5713936 0 0 0 0.2193199,0.0792 0.07137085,0.08219716 0 0 1 0.061263,0.0694 c 0.039208,0.21172 0.081786,0.41989 0.1246693,0.635 h 0.4708027 c 0.04319,-0.2187 0.085462,-0.42863 0.1255881,-0.63852 a 0.06892035,0.0793749 0 0 1 0.057587,-0.0701 2.3365531,2.6909853 0 0 0 0.2245272,-0.0802 0.06555091,0.07549433 0 0 1 0.077191,0.0171 q 0.2018601,0.20387 0.4077023,0.40323 a 0.05697415,0.06561656 0 0 0 0.049929,0.0135 c 0.1225251,-0.0929 0.2450503,-0.18882 0.3675752,-0.28215 -0.082398,-0.2116 -0.1589761,-0.4127 -0.2373923,-0.61059 a 0.06126253,0.07055544 0 0 1 0.010721,-0.0878 1.0720943,1.23472 0 0 0 0.1225251,-0.18554 0.10598418,0.122061 0 0 1 0.1255881,-0.0629 c 0.1693907,0.0225 0.3387818,0.0403 0.5090917,0.0557 a 0.05881203,0.06773321 0 0 0 0.047785,-0.0309 c 0.049929,-0.15238 0.095263,-0.30656 0.1430481,-0.46074 -0.026343,-0.0188 -0.04319,-0.0314 -0.061263,-0.0435 -0.1503994,-0.10225 -0.3011052,-0.20291 -0.4530364,-0.30053 z m -1.7879469,0.63499 a 0.73515039,0.84666549 0 1 1 0.7896739,-0.81871 0.74372716,0.85654321 0 0 1 -0.7896739,0.81814 z m 4.0454713,-3.39186 c -0.061263,-0.0556 -0.1286513,-0.10582 -0.2073736,-0.16724 v 0.10573 c 0,0.23001 0,0.45855 0,0.68826 a 0.07320873,0.08431372 0 0 1 -0.046866,0.0861 c -0.1338587,0.0802 -0.2661858,0.16127 -0.3982065,0.24477 a 0.08791175,0.10124716 0 0 1 -0.098939,0 c -0.1262007,-0.0815 -0.254852,-0.1611 -0.3850352,-0.23693 a 0.09189381,0.10583325 0 0 1 -0.054524,-0.1121 c 0.00307,-0.25088 0,-0.50167 0,-0.76737 a 0.98816467,1.1380595 0 0 0 -0.4613068,0.53136 0.80345813,0.92533521 0 0 0 0.3982064,1.2872 0.08944331,0.103011 0 0 1 0.061263,0.11085 v 0.78845 1.96001 c 0,0.0347 0,0.0693 0,0.10235 a 0.49592021,0.57114635 0 0 0 0.7449526,0.42333 0.459469,0.529166 0 0 0 0.2419869,-0.50096 q 0,-0.9917 0,-1.98342 0,-0.39714 0,-0.79331 a 0.0845423,0.09736656 0 0 1 0.061263,-0.10562 0.81479169,0.93838756 0 0 0 0.3923866,-0.40328 0.88830674,1.0230541 0 0 0 -0.2475008,-1.25863 z m -0.6888971,4.85784 a 0.19634643,0.22613028 0 0 1 -0.2027791,-0.22728 0.20706735,0.23847749 0 0 1 0.4129097,0.0136 0.2006348,0.23106917 0 0 1 -0.2101306,0.21244 z"
       id="tools" />
  </g>
</svg>
